<svg width="50" height="50" viewBox="0 0 50 50" fill="none" xmlns="http://www.w3.org/2000/svg">
<g clip-path="url(#clip0)">
<path d="M45 0H5C2.23858 0 0 2.23858 0 5V45C0 47.7614 2.23858 50 5 50H45C47.7614 50 50 47.7614 50 45V5C50 2.23858 47.7614 0 45 0Z" fill="#E535AB"/>
<path d="M50 9.5L24.2805 11.4709V37.9766L50 39V9.5Z" fill="url(#paint0_linear)"/>
<path d="M50 38.9283L16.9008 19.6255H0V51.5808H50V38.9283Z" fill="url(#paint1_linear)"/>
<path d="M0 38.6663L50 9.5059V-2H0V38.6663Z" fill="url(#paint2_linear)"/>
<path d="M10.1681 24.217C10.0824 9.86487 29.1559 3.52756 37.3812 16.8632L31.0697 20.5441C27.2596 14.1928 17.7994 16.4638 17.4599 24.2169C17.5618 31.3624 26.86 34.6816 31.0701 27.8893L37.3816 31.5701C30.1328 44.2527 10.5337 39.6897 10.1681 24.217Z" fill="white"/>
<path d="M34.2246 20.0498H35.4266L34.6053 28.0453H33.3807L34.2246 20.0498Z" fill="white"/>
<path d="M36.7995 20.0498H38.0015L37.1802 28.0453H35.9556L36.7995 20.0498Z" fill="white"/>
<path d="M38.8884 21.9487H32.8784V23.1187H38.8884V21.9487Z" fill="white"/>
<path d="M38.5519 24.7983H32.5418V25.9683H38.5519V24.7983Z" fill="white"/>
</g>
<defs>
<linearGradient id="paint0_linear" x1="33.0876" y1="19.4957" x2="45.641" y2="35.4382" gradientUnits="userSpaceOnUse">
<stop stop-color="#3B009B"/>
<stop offset="1" stop-color="#390086"/>
</linearGradient>
<linearGradient id="paint1_linear" x1="13.9625" y1="31.0163" x2="27.3086" y2="47.9654" gradientUnits="userSpaceOnUse">
<stop stop-color="#340084"/>
<stop offset="1" stop-color="#290064"/>
</linearGradient>
<linearGradient id="paint2_linear" x1="14.5208" y1="4.81514" x2="28.1801" y2="22.1621" gradientUnits="userSpaceOnUse">
<stop stop-color="#A47EDE"/>
<stop offset="1" stop-color="#9866D3"/>
</linearGradient>
<clipPath id="clip0">
<rect width="50" height="50" rx="5" fill="white"/>
</clipPath>
</defs>
</svg>
