<svg width="50" height="50" viewBox="0 0 50 50" fill="none" xmlns="http://www.w3.org/2000/svg">
<path d="M45 0H5C2.23858 0 0 2.23858 0 5V45C0 47.7614 2.23858 50 5 50H45C47.7614 50 50 47.7614 50 45V5C50 2.23858 47.7614 0 45 0Z" fill="#F05133"/>
<path d="M40.3967 23.5747L26.4243 9.60352C25.6204 8.79883 24.3154 8.79883 23.5105 9.60352L20.6093 12.5051L24.2894 16.1854C25.1449 15.8965 26.1255 16.0902 26.8071 16.772C27.4923 17.458 27.6846 18.447 27.3885 19.3055L30.9354 22.8525C31.7936 22.5568 32.7836 22.7479 33.4688 23.4343C34.4268 24.3921 34.4268 25.9439 33.4688 26.9019C32.5107 27.8602 30.9589 27.8602 30.0003 26.9019C29.2799 26.181 29.1018 25.1226 29.4666 24.2351L26.1587 20.927L26.1584 29.6321C26.392 29.7477 26.6124 29.9021 26.807 30.0959C27.7647 31.0535 27.7647 32.6051 26.807 33.5643C25.849 34.5219 24.2965 34.5219 23.3395 33.5643C22.3817 32.6052 22.3817 31.0535 23.3395 30.0959C23.5762 29.8596 23.8501 29.6807 24.1424 29.5608V20.7748C23.85 20.6554 23.5764 20.4779 23.3394 20.2397C22.6139 19.5148 22.4391 18.4499 22.8112 17.5589L19.1834 13.9304L9.60369 23.5102C8.79877 24.3155 8.79877 25.6205 9.60369 26.4253L23.5752 40.3965C24.3796 41.2012 25.6841 41.2012 26.4896 40.3965L40.3965 26.4913C41.2012 25.6862 41.2012 24.3808 40.3965 23.5759" fill="white"/>
</svg>
